<?xml version="1.0" encoding="utf-8"?>
<!-- Generator: Adobe Illustrator 19.2.1, SVG Export Plug-In . SVG Version: 6.00 Build 0)  -->
<svg version="1.1" xmlns="http://www.w3.org/2000/svg" xmlns:xlink="http://www.w3.org/1999/xlink" x="0px" y="0px"
	 viewBox="0 0 48 48" style="enable-background:new 0 0 48 48;" xml:space="preserve">
<style type="text/css">
	.st0{fill:url(#SVGID_1_);}
	.st1{fill:url(#SVGID_2_);}
	.st2{fill:url(#SVGID_3_);}
	.st3{fill:url(#SVGID_4_);}
	.st4{fill:url(#SVGID_5_);}
	.st5{fill:url(#SVGID_6_);}
	.st6{fill:url(#SVGID_7_);}
	.st7{fill:url(#SVGID_8_);}
	.st8{fill:url(#SVGID_9_);}
	.st9{fill:url(#SVGID_10_);}
</style>
<g id="Capa_1">
	<g id="Capa_2">
		
			<linearGradient id="SVGID_1_" gradientUnits="userSpaceOnUse" x1="90.8073" y1="147.813" x2="97.2668" y2="147.6247" gradientTransform="matrix(0.7274 0.6862 0.6862 -0.7274 -127.8284 64.9113)">
			<stop  offset="0" style="stop-color:#FF9B2A"/>
			<stop  offset="1" style="stop-color:#FF592C"/>
		</linearGradient>
		<polygon class="st0" points="41.2,18.2 42.4,18.1 42.6,25.9 41.4,25.8 		"/>
		
			<linearGradient id="SVGID_2_" gradientUnits="userSpaceOnUse" x1="-89.0734" y1="333.7254" x2="-83.4912" y2="328.2775" gradientTransform="matrix(-0.7157 0.6984 0.6984 0.7157 -251.0323 -154.6882)">
			<stop  offset="0" style="stop-color:#FF9B2A"/>
			<stop  offset="1" style="stop-color:#FF592C"/>
		</linearGradient>
		<polygon class="st1" points="45.8,21.4 45.8,22.6 38,22.5 38.1,21.3 		"/>
	</g>
	<linearGradient id="SVGID_3_" gradientUnits="userSpaceOnUse" x1="7" y1="23" x2="33.25" y2="23">
		<stop  offset="0" style="stop-color:#FF9B2A"/>
		<stop  offset="1" style="stop-color:#FF592C"/>
	</linearGradient>
	<path class="st2" d="M32.7,8.1c-0.3-0.3-0.8-0.5-1.2-0.5h-8.7c-0.1-0.5-0.3-1-0.7-1.3c-0.5-0.6-1.2-0.9-2-0.9l0,0
		c-1.3,0-2.4,0.9-2.7,2.2H8.6C7.7,7.7,7,8.4,7,9.3v29.5c0,0.9,0.7,1.6,1.6,1.6h23c0.9,0,1.6-0.7,1.6-1.6c0,0,0,0,0,0V9.3
		C33.3,8.9,33.1,8.5,32.7,8.1z M17.9,8.8c0.3,0,0.5-0.2,0.5-0.5c0-0.9,0.7-1.6,1.6-1.6c0,0,0,0,0.1,0l0,0c0.5,0,0.9,0.2,1.2,0.5
		c0.3,0.3,0.4,0.7,0.4,1.1c0,0.3,0.2,0.5,0.5,0.5h3.3v3.3H14.7V8.8H17.9z M32.2,38.9c0,0.3-0.2,0.5-0.5,0.5h-23
		c-0.3,0-0.5-0.2-0.5-0.5V9.3c0-0.3,0.2-0.5,0.5-0.5h4.9v3.8c0,0.3,0.2,0.5,0.5,0.5h12c0.3,0,0.5-0.2,0.5-0.5V8.8h4.9
		c0.2,0,0.3,0.1,0.4,0.2c0.1,0.1,0.2,0.2,0.2,0.4V38.9z"/>
	<linearGradient id="SVGID_4_" gradientUnits="userSpaceOnUse" x1="10.2812" y1="24.0939" x2="29.9686" y2="24.0939">
		<stop  offset="0" style="stop-color:#FF9B2A"/>
		<stop  offset="1" style="stop-color:#FF592C"/>
	</linearGradient>
	<path class="st3" d="M29.4,11h-1.1c-0.3,0-0.5,0.2-0.5,0.5s0.2,0.5,0.5,0.5h0.5v24.1H11.4V12.1h0.5c0.3,0,0.5-0.2,0.5-0.5
		S12.2,11,11.9,11h-1.1c-0.3,0-0.5,0.2-0.5,0.5v25.2c0,0.3,0.2,0.5,0.5,0.5h18.6c0.3,0,0.5-0.2,0.5-0.5V11.5
		C30,11.2,29.7,11,29.4,11z"/>
	<linearGradient id="SVGID_5_" gradientUnits="userSpaceOnUse" x1="20.1249" y1="18.0783" x2="27.2343" y2="18.0783">
		<stop  offset="0" style="stop-color:#FF9B2A"/>
		<stop  offset="1" style="stop-color:#FF592C"/>
	</linearGradient>
	<path class="st4" d="M20.7,18.6h6c0.3,0,0.5-0.2,0.5-0.5s-0.2-0.5-0.5-0.5h-6c-0.3,0-0.5,0.2-0.5,0.5S20.4,18.6,20.7,18.6z"/>
	<linearGradient id="SVGID_6_" gradientUnits="userSpaceOnUse" x1="20.1249" y1="21.3595" x2="25.5937" y2="21.3595">
		<stop  offset="0" style="stop-color:#FF9B2A"/>
		<stop  offset="1" style="stop-color:#FF592C"/>
	</linearGradient>
	<path class="st5" d="M20.7,21.9H25c0.3,0,0.5-0.2,0.5-0.5s-0.2-0.5-0.5-0.5h-4.4c-0.3,0-0.5,0.2-0.5,0.5S20.4,21.9,20.7,21.9z"/>
	<linearGradient id="SVGID_7_" gradientUnits="userSpaceOnUse" x1="13.0346" y1="19.7226" x2="19.0468" y2="19.7226">
		<stop  offset="0" style="stop-color:#FF9B2A"/>
		<stop  offset="1" style="stop-color:#FF592C"/>
	</linearGradient>
	<path class="st6" d="M15.2,21.9c0.1,0.1,0.2,0.2,0.4,0.2h0c0.2,0,0.3-0.1,0.4-0.2l2.9-3.5c0.2-0.2,0.2-0.6,0-0.8s-0.6-0.2-0.8,0
		c0,0,0,0,0,0l-2.5,3l-1.6-1.6c-0.2-0.2-0.6-0.2-0.8,0c-0.2,0.2-0.2,0.5,0,0.7L15.2,21.9z"/>
	<linearGradient id="SVGID_8_" gradientUnits="userSpaceOnUse" x1="20.1249" y1="25.7345" x2="27.2343" y2="25.7345">
		<stop  offset="0" style="stop-color:#FF9B2A"/>
		<stop  offset="1" style="stop-color:#FF592C"/>
	</linearGradient>
	<path class="st7" d="M26.7,26.3h-6c-0.3,0-0.5-0.2-0.5-0.5s0.2-0.5,0.5-0.5h6c0.3,0,0.5,0.2,0.5,0.5S27,26.3,26.7,26.3z"/>
	<linearGradient id="SVGID_9_" gradientUnits="userSpaceOnUse" x1="20.1249" y1="29.0157" x2="25.5937" y2="29.0157">
		<stop  offset="0" style="stop-color:#FF9B2A"/>
		<stop  offset="1" style="stop-color:#FF592C"/>
	</linearGradient>
	<path class="st8" d="M25,29.6h-4.4c-0.3,0-0.5-0.2-0.5-0.5s0.2-0.5,0.5-0.5H25c0.3,0,0.5,0.2,0.5,0.5S25.3,29.6,25,29.6z"/>
	<linearGradient id="SVGID_10_" gradientUnits="userSpaceOnUse" x1="12.9965" y1="27.3873" x2="19.0315" y2="27.3873">
		<stop  offset="0" style="stop-color:#FF9B2A"/>
		<stop  offset="1" style="stop-color:#FF592C"/>
	</linearGradient>
	<path class="st9" d="M15.6,29.7c-0.1,0-0.3-0.1-0.4-0.2l-2-2c-0.2-0.2-0.2-0.5,0-0.8c0.2-0.2,0.5-0.2,0.8,0c0,0,0,0,0,0l1.6,1.6
		l2.5-3c0.2-0.2,0.5-0.3,0.8-0.1s0.3,0.5,0.1,0.8L16,29.5C15.9,29.6,15.8,29.7,15.6,29.7L15.6,29.7z"/>
</g>
<g id="Capa_2_1_">
</g>
</svg>
