<?xml version="1.0" encoding="utf-8"?>
<!-- Generator: Adobe Illustrator 19.2.1, SVG Export Plug-In . SVG Version: 6.00 Build 0)  -->
<svg version="1.1" xmlns="http://www.w3.org/2000/svg" xmlns:xlink="http://www.w3.org/1999/xlink" x="0px" y="0px"
	 viewBox="0 0 48 48" style="enable-background:new 0 0 48 48;" xml:space="preserve">
<style type="text/css">
	.st0{fill:url(#SVGID_1_);}
	.st1{fill:url(#SVGID_2_);}
	.st2{fill:url(#SVGID_3_);}
</style>
<g id="outine">
	<title></title>
	<linearGradient id="SVGID_1_" gradientUnits="userSpaceOnUse" x1="0.3939" y1="24.5741" x2="37.7526" y2="24.5741">
		<stop  offset="0" style="stop-color:#FF9B2A"/>
		<stop  offset="1" style="stop-color:#FF592C"/>
	</linearGradient>
	<path class="st0" d="M37.6,19.8c-0.2-0.2-0.6-0.2-0.8,0c0,0,0,0,0,0L35,21.5l-7.8-7.9l3.2-3.3c0.2-0.2,0.2-0.6,0-0.8
		c-0.2-0.2-0.6-0.2-0.8,0L26,13.2c-0.2,0.2-0.2,0.6,0,0.8l0.7,0.7l-1.9,1.7H22c-0.7,0-1.3,0.3-1.9,0.7l-6.4,5.7
		c-0.2,0.2-0.3,0.5-0.1,0.8c0.1,0.1,1.3,1.8,3.1,1.8c0.2,0,0.4,0,0.6-0.1c1.4-0.3,3.1-1.9,3.8-2.5c1.2,0.6,2.5,0.7,3.7,0.5
		c2.4-0.4,3-1.4,3-1.6c0.1-0.3,0-0.6-0.3-0.8c-0.3-0.1-0.6,0-0.8,0.3c0,0,0,0,0,0c0,0-0.4,0.6-2.2,1c-1.1,0.2-2.3,0-3.3-0.6
		c-0.2-0.2-0.6-0.1-0.8,0.1C20,22.4,18.3,24,17,24.3c-0.8,0.1-1.6-0.3-2.1-0.9l6-5.3c0.3-0.3,0.7-0.4,1.1-0.4h3
		c0.1,0,0.3-0.1,0.4-0.1l2.1-1.9l5.3,5.3l-2.1,1.7c-0.2,0.1-0.2,0.3-0.2,0.5c0.1,0.7,0.2,3.1-0.6,3.8c-0.9,0.8-2,1.9-2.6,2.5
		L21.8,24c-0.2-0.2-0.6-0.2-0.8,0c-0.2,0.2-0.2,0.6,0,0.8l0,0l6.4,6.5c0.3,0.3,0.3,0.9,0,1.3c-0.3,0.3-0.9,0.3-1.2,0l-4.1-4.1
		c-0.2-0.2-0.6-0.2-0.8,0c-0.2,0.2-0.2,0.6,0,0.8l4.1,4.1l0,0c0.3,0.3,0.5,0.6,0.5,1c0,0.2-0.1,0.3-0.3,0.4
		c-0.2,0.2-0.7,0.6-1.5-0.2l0,0l-3.4-3.4c-0.2-0.2-0.6-0.2-0.8,0c-0.2,0.2-0.2,0.6,0,0.8c0,0,0,0,0,0l3.4,3.4l0,0
		c0.3,0.4,0.3,0.9,0,1.2c-0.3,0.3-0.9,0.3-1.2,0l-0.5-0.5c0,0,0,0-0.1,0c0-0.9-0.7-1.7-1.6-1.9c0.4-1.1-0.2-2.2-1.3-2.6c0,0,0,0,0,0
		c0.7-0.8,0.6-2-0.1-2.7l0,0c-0.8-0.7-1.9-0.8-2.8-0.1c-0.3-0.8-1.1-1.4-1.9-1.4l0,0c-0.5,0-1.1,0.2-1.5,0.6l-1.5,1.5
		c-0.5-0.5-1.5-1.6-2.5-2.6c-0.9-0.8-0.7-3.1-0.6-3.8c0-0.2,0-0.4-0.2-0.5l-2.1-1.7l5.3-5.3l2.1,1.9c0.1,0.1,0.2,0.1,0.4,0.1h3
		c0.4,0,0.8,0.2,1.1,0.4l0.1,0.1c0.3,0.2,0.6,0.1,0.8-0.1c0.2-0.3,0.1-0.6-0.1-0.8L18,17.2c-0.5-0.5-1.2-0.7-1.9-0.7h-2.8l-1.9-1.7
		l0.7-0.7c0.2-0.2,0.2-0.6,0-0.8L8.6,9.6C8.3,9.3,8,9.3,7.7,9.6c-0.2,0.2-0.2,0.6,0,0.8l0,0l3.2,3.3l-7.8,7.9l-1.7-1.7
		c-0.2-0.2-0.6-0.3-0.8,0s-0.3,0.6,0,0.8c0,0,0,0,0,0l2.1,2.1C3,23,3.3,23,3.6,22.7c0,0,0,0,0,0l1-1l1.9,1.6c-0.1,0.9-0.2,3.4,1,4.5
		c1,0.9,2.1,2.1,2.5,2.5l0,0c-0.8,0.8-0.8,2.1,0,2.9c0.4,0.4,0.9,0.6,1.5,0.6h0c0,1.1,0.9,2.1,2,2.1c0,0,0,0,0,0c0,0,0,0,0,0
		c0,1.1,0.9,2.1,2,2.1c0.3,0,0.6-0.1,0.9-0.2c0.3,1.1,1.4,1.7,2.4,1.5c0,0,0.1,0,0.1,0c0.4,0.3,0.8,0.4,1.3,0.4l0,0
		c0.5,0,1.1-0.2,1.5-0.6c0.3-0.3,0.5-0.7,0.5-1.1c1.1,0.3,2.2-0.4,2.5-1.5c0-0.1,0-0.2,0-0.3c0.6,0.1,1.2-0.1,1.7-0.5
		c0.4-0.3,0.6-0.8,0.7-1.3c0-0.2,0-0.3,0-0.5c0.5,0,0.9-0.3,1.2-0.6c0.8-0.8,0.8-2.1,0-2.9l-0.1-0.1c0.6-0.6,1.7-1.6,2.6-2.4
		c1.2-1.1,1.1-3.6,1-4.5l1.9-1.6l1,1c0.2,0.2,0.6,0.2,0.8,0c0,0,0,0,0,0l2.1-2.1C37.8,20.4,37.8,20,37.6,19.8z M10.7,32.5
		c-0.3-0.3-0.3-0.9,0-1.3l2.4-2.4c0.3-0.3,0.9-0.3,1.2,0c0,0,0,0,0,0c0.3,0.3,0.3,0.9,0,1.2L12,32.5l0,0
		C11.6,32.9,11.1,32.9,10.7,32.5z M12.8,34.6c-0.3-0.3-0.3-0.9,0-1.2c0,0,0,0,0,0c0,0,0,0,0,0l2.4-2.4c0,0,0,0,0,0c0,0,0,0,0,0
		l1.1-1.1c0.3-0.3,0.9-0.3,1.2,0c0,0,0,0,0,0l0,0c0.3,0.3,0.3,0.9,0,1.3L14,34.6C13.7,35,13.1,35,12.8,34.6z M14.9,36.7
		c-0.3-0.3-0.3-0.9,0-1.3c0,0,0,0,0,0l2.4-2.4c0,0,0,0,0,0c0.3-0.3,0.9-0.3,1.2,0c0,0,0,0,0,0c0.3,0.3,0.3,0.9,0,1.3L18,34.8l0,0
		l-1.1,1.1l0,0l0,0l-0.8,0.8C15.8,37,15.2,37,14.9,36.7z M17.7,38c-0.3-0.3-0.3-0.9,0-1.3l1.1-1.1c0.3-0.3,0.9-0.3,1.2,0
		c0,0,0,0,0,0c0.3,0.3,0.3,0.9,0,1.3L19,38C18.6,38.4,18.1,38.4,17.7,38z M20.8,38.3c-0.2,0.2-0.4,0.2-0.6,0.2c0,0-0.1,0-0.1,0
		l0.8-0.8c0,0,0.1-0.1,0.1-0.1C21.1,37.9,21,38.2,20.8,38.3L20.8,38.3z"/>
</g>
<g id="Capa_2">
	
		<linearGradient id="SVGID_2_" gradientUnits="userSpaceOnUse" x1="38.6895" y1="21.9158" x2="45.149" y2="22.1041" gradientTransform="matrix(0.7274 0.6862 -0.6862 0.7274 26.5287 -22.7649)">
		<stop  offset="0" style="stop-color:#FF9B2A"/>
		<stop  offset="1" style="stop-color:#FF592C"/>
	</linearGradient>
	<polygon class="st1" points="41.2,18.2 42.4,18.1 42.6,25.9 41.4,25.8 	"/>
	
		<linearGradient id="SVGID_3_" gradientUnits="userSpaceOnUse" x1="39.1248" y1="19.3243" x2="44.7122" y2="24.7772" gradientTransform="matrix(-0.7157 0.6984 -0.6984 -0.7157 87.2891 8.4822)">
		<stop  offset="0" style="stop-color:#FF9B2A"/>
		<stop  offset="1" style="stop-color:#FF592C"/>
	</linearGradient>
	<polygon class="st2" points="45.8,21.4 45.8,22.6 38,22.5 38.1,21.3 	"/>
</g>
</svg>
